<?xml version="1.0" standalone="no"?><!DOCTYPE svg PUBLIC "-//W3C//DTD SVG 1.1//EN"
  "http://www.w3.org/Graphics/SVG/1.1/DTD/svg11.dtd">
<svg t="1590852851693" class="icon" viewBox="0 0 1024 1024" version="1.1" xmlns="http://www.w3.org/2000/svg" p-id="2620"
     xmlns:xlink="http://www.w3.org/1999/xlink" width="16" height="16">
  <defs>
    <style type="text/css"></style>
  </defs>
  <path
    d="M796.4672 892.6208V131.3792H227.5328v761.2416L512 750.3872l284.4672 142.2336z m-568.9344-818.176h568.9344c31.4368 0 56.9344 25.4976 56.9344 56.9344v761.2416c0 31.4368-25.4976 56.9344-56.9344 56.9344-8.8064 0-17.5104-2.048-25.3952-6.0416L512 813.9776 253.0304 943.5136c-28.0576 14.0288-62.2592 2.6624-76.288-25.3952-3.9936-7.8848-6.0416-16.5888-6.0416-25.3952V131.3792c0-31.4368 25.3952-56.9344 56.832-56.9344z m142.2336 227.5328h284.4672c15.6672 0 28.4672 12.6976 28.4672 28.4672 0 15.6672-12.6976 28.4672-28.4672 28.4672H369.7664c-15.6672 0-28.4672-12.6976-28.4672-28.4672 0-15.6672 12.8-28.4672 28.4672-28.4672z m0 170.7008h284.4672c15.6672 0 28.4672 12.6976 28.4672 28.4672s-12.6976 28.4672-28.4672 28.4672H369.7664c-15.6672 0-28.4672-12.6976-28.4672-28.4672s12.8-28.4672 28.4672-28.4672z"
    p-id="2621" fill="red"></path>
</svg>